<svg width="342" height="90" viewBox="0 0 342 90" fill="none" xmlns="http://www.w3.org/2000/svg">
<path d="M3.924 75.682V63.982H6.316V75.682C6.316 77.1727 6.706 78.2907 7.486 79.036C8.28333 79.764 9.37533 80.128 10.762 80.128C12.1487 80.128 13.2407 79.764 14.038 79.036C14.8353 78.2907 15.234 77.1727 15.234 75.682V63.982H17.6V75.682C17.6 77.7967 16.95 79.4087 15.65 80.518C14.3673 81.6273 12.7293 82.182 10.736 82.182C8.76 82.182 7.13067 81.6273 5.848 80.518C4.56533 79.4087 3.924 77.7967 3.924 75.682ZM34.5741 63.982L29.0101 73.004L34.5481 82H31.9481L27.5541 74.902L23.4201 82H20.7941L26.3581 72.978L20.7941 63.982H23.4201L27.8141 71.106L31.9481 63.982H34.5741ZM37.9777 86.42L45.0757 57.508H47.4157L40.3177 86.42H37.9777ZM51.7853 75.682V63.982H54.1773V75.682C54.1773 77.1727 54.5673 78.2907 55.3473 79.036C56.1447 79.764 57.2367 80.128 58.6233 80.128C60.01 80.128 61.102 79.764 61.8993 79.036C62.6967 78.2907 63.0953 77.1727 63.0953 75.682V63.982H65.4613V75.682C65.4613 77.7967 64.8113 79.4087 63.5113 80.518C62.2287 81.6273 60.5907 82.182 58.5973 82.182C56.6213 82.182 54.992 81.6273 53.7093 80.518C52.4267 79.4087 51.7853 77.7967 51.7853 75.682ZM69.3055 82V63.982H71.6715V82H69.3055ZM85.7379 80.18H89.0659C91.3365 80.18 93.0699 79.556 94.2659 78.308C95.4619 77.06 96.0599 75.318 96.0599 73.082C96.0599 70.846 95.4619 69.104 94.2659 67.856C93.0699 66.608 91.3365 65.984 89.0659 65.984H85.7379V80.18ZM89.0659 63.982C91.9779 63.982 94.2745 64.7967 95.9559 66.426C97.6372 68.0553 98.4779 70.274 98.4779 73.082C98.4779 75.89 97.6372 78.0827 95.9559 79.66C94.2745 81.22 91.9779 82 89.0659 82H83.3719V63.982H89.0659ZM107.455 82.234C105.41 82.234 103.746 81.558 102.463 80.206C101.181 78.854 100.539 77.0687 100.539 74.85C100.539 72.6313 101.189 70.8547 102.489 69.52C103.789 68.168 105.471 67.492 107.533 67.492C109.613 67.492 111.277 68.1333 112.525 69.416C113.791 70.6813 114.423 72.302 114.423 74.278C114.423 74.7807 114.389 75.2487 114.319 75.682H102.957C103.027 77.1033 103.469 78.23 104.283 79.062C105.115 79.8767 106.173 80.284 107.455 80.284C108.426 80.284 109.241 80.0673 109.899 79.634C110.575 79.2007 111.069 78.6287 111.381 77.918H113.929C113.479 79.166 112.699 80.1973 111.589 81.012C110.497 81.8267 109.119 82.234 107.455 82.234ZM111.953 73.966C111.936 72.5967 111.503 71.5047 110.653 70.69C109.804 69.858 108.747 69.442 107.481 69.442C106.233 69.442 105.193 69.8493 104.361 70.664C103.529 71.4613 103.07 72.562 102.983 73.966H111.953ZM116.85 71.756C116.85 70.56 117.344 69.5547 118.332 68.74C119.337 67.908 120.629 67.492 122.206 67.492C123.801 67.492 125.049 67.8993 125.95 68.714C126.851 69.5113 127.345 70.612 127.432 72.016H124.988C124.953 71.2187 124.685 70.5773 124.182 70.092C123.679 69.6067 122.977 69.364 122.076 69.364C121.192 69.364 120.49 69.5807 119.97 70.014C119.467 70.43 119.216 70.976 119.216 71.652C119.216 72.3107 119.502 72.822 120.074 73.186C120.663 73.55 121.365 73.8187 122.18 73.992C123.012 74.148 123.835 74.3387 124.65 74.564C125.482 74.772 126.184 75.1793 126.756 75.786C127.345 76.3753 127.64 77.2247 127.64 78.334C127.64 79.426 127.137 80.3533 126.132 81.116C125.144 81.8613 123.853 82.234 122.258 82.234C120.663 82.234 119.381 81.8353 118.41 81.038C117.457 80.2407 116.937 79.14 116.85 77.736H119.294C119.329 78.5333 119.606 79.1747 120.126 79.66C120.663 80.128 121.391 80.362 122.31 80.362C123.246 80.362 123.974 80.1627 124.494 79.764C125.031 79.3653 125.3 78.8627 125.3 78.256C125.3 77.632 125.092 77.138 124.676 76.774C124.26 76.41 123.74 76.1587 123.116 76.02C122.492 75.8813 121.807 75.7167 121.062 75.526C120.334 75.3353 119.658 75.136 119.034 74.928C118.41 74.7027 117.89 74.3213 117.474 73.784C117.058 73.2467 116.85 72.5707 116.85 71.756ZM133.395 64.97C133.083 65.282 132.702 65.438 132.251 65.438C131.801 65.438 131.419 65.282 131.107 64.97C130.813 64.658 130.665 64.2767 130.665 63.826C130.665 63.3753 130.821 62.994 131.133 62.682C131.445 62.37 131.818 62.214 132.251 62.214C132.702 62.214 133.083 62.37 133.395 62.682C133.707 62.994 133.863 63.3753 133.863 63.826C133.863 64.2767 133.707 64.658 133.395 64.97ZM131.055 82V67.726H133.421V82H131.055ZM143.203 82.234C141.262 82.234 139.641 81.5407 138.341 80.154C137.041 78.75 136.391 76.9647 136.391 74.798C136.391 72.614 137.032 70.8547 138.315 69.52C139.615 68.168 141.244 67.492 143.203 67.492C144.416 67.492 145.474 67.778 146.375 68.35C147.294 68.922 147.987 69.6673 148.455 70.586V67.726H150.847V82.364C150.847 84.3227 150.214 85.9173 148.949 87.148C147.684 88.396 146.08 89.02 144.139 89.02C142.198 89.02 140.586 88.5693 139.303 87.668C138.038 86.7667 137.318 85.588 137.145 84.132H139.459C139.684 84.9467 140.213 85.6227 141.045 86.16C141.877 86.6973 142.908 86.966 144.139 86.966C145.37 86.966 146.392 86.5587 147.207 85.744C148.039 84.9467 148.455 83.82 148.455 82.364V79.088C147.987 80.024 147.294 80.7867 146.375 81.376C145.474 81.948 144.416 82.234 143.203 82.234ZM147.025 78.75C147.978 77.7793 148.455 76.488 148.455 74.876C148.455 73.264 147.978 71.9727 147.025 71.002C146.089 70.0313 144.954 69.546 143.619 69.546C142.302 69.546 141.166 70.014 140.213 70.95C139.277 71.886 138.809 73.16 138.809 74.772C138.809 76.384 139.286 77.6927 140.239 78.698C141.192 79.7033 142.328 80.206 143.645 80.206C144.962 80.206 146.089 79.7207 147.025 78.75ZM157.111 67.726V70.04C158.082 68.3413 159.633 67.492 161.765 67.492C163.342 67.492 164.66 68.0207 165.717 69.078C166.774 70.118 167.303 71.6087 167.303 73.55V82H164.963V73.94C164.963 72.5013 164.616 71.4093 163.923 70.664C163.23 69.9187 162.268 69.546 161.037 69.546C159.824 69.546 158.862 69.9187 158.151 70.664C157.458 71.4093 157.111 72.5013 157.111 73.94V82H154.745V67.726H157.111ZM177.051 82.234C175.006 82.234 173.342 81.558 172.059 80.206C170.776 78.854 170.135 77.0687 170.135 74.85C170.135 72.6313 170.785 70.8547 172.085 69.52C173.385 68.168 175.066 67.492 177.129 67.492C179.209 67.492 180.873 68.1333 182.121 69.416C183.386 70.6813 184.019 72.302 184.019 74.278C184.019 74.7807 183.984 75.2487 183.915 75.682H172.553C172.622 77.1033 173.064 78.23 173.879 79.062C174.711 79.8767 175.768 80.284 177.051 80.284C178.022 80.284 178.836 80.0673 179.495 79.634C180.171 79.2007 180.665 78.6287 180.977 77.918H183.525C183.074 79.166 182.294 80.1973 181.185 81.012C180.093 81.8267 178.715 82.234 177.051 82.234ZM181.549 73.966C181.532 72.5967 181.098 71.5047 180.249 70.69C179.4 69.858 178.342 69.442 177.077 69.442C175.829 69.442 174.789 69.8493 173.957 70.664C173.125 71.4613 172.666 72.562 172.579 73.966H181.549ZM189.332 67.726V70.144C190.181 68.376 191.628 67.492 193.674 67.492V69.962H193.05C191.836 69.962 190.909 70.2827 190.268 70.924C189.644 71.548 189.332 72.64 189.332 74.2V82H186.966V67.726H189.332Z" fill="white"/>
<path d="M0.85 48.4C2.25 48.2667 3.4 47.85 4.3 47.15C5.23333 46.4833 5.93333 45.35 6.4 43.75C6.9 42.1833 7.15 40.0333 7.15 37.3V9.9C7.15 8.63333 7.05 7.71667 6.85 7.15C6.68333 6.58333 6.33333 6.2 5.8 6C5.3 5.8 4.5 5.66666 3.4 5.6V4.6C5.06667 4.7 7.58333 4.75 10.95 4.75C14.3833 4.75 17.0167 4.7 18.85 4.6V5.6C17.7167 5.66666 16.9 5.8 16.4 6C15.9 6.2 15.55 6.58333 15.35 7.15C15.1833 7.71667 15.1 8.63333 15.1 9.9V28.2V31.25C15.1 35.95 14.8167 39.2833 14.25 41.25C13.55 43.6833 12.05 45.65 9.75 47.15C7.48333 48.65 4.51667 49.4 0.85 49.4V48.4ZM45.5805 34.55C45.5805 36.0833 45.8138 37.2 46.2805 37.9C46.7805 38.6 47.6138 38.95 48.7805 38.95V40C47.7471 39.9 46.7138 39.85 45.6805 39.85C42.7805 39.85 40.3471 40.0833 38.3805 40.55V36.05C36.8471 39.15 34.1638 40.7 30.3305 40.7C27.8305 40.7 26.0138 40.05 24.8805 38.75C24.3471 38.1167 23.9471 37.3 23.6805 36.3C23.4471 35.2667 23.3305 33.9167 23.3305 32.25V19.6C23.3305 18.0667 23.0805 16.95 22.5805 16.25C22.1138 15.55 21.2971 15.2 20.1305 15.2V14.15C21.1638 14.25 22.1971 14.3 23.2305 14.3C26.1305 14.3 28.5638 14.0667 30.5305 13.6V34.3C30.5305 35.7 30.7305 36.75 31.1305 37.45C31.5638 38.15 32.3638 38.5 33.5305 38.5C34.8638 38.5 35.9971 37.95 36.9305 36.85C37.8971 35.7167 38.3805 34.3333 38.3805 32.7V19.6C38.3805 18.0667 38.1305 16.95 37.6305 16.25C37.1638 15.55 36.3471 15.2 35.1805 15.2V14.15C36.2471 14.25 37.2805 14.3 38.2805 14.3C41.1805 14.3 43.6138 14.0667 45.5805 13.6V34.55ZM69.6027 13.45C72.1361 13.45 73.9694 14.1 75.1027 15.4C75.6694 16.0333 76.0694 16.85 76.3027 17.85C76.5361 18.85 76.6527 20.2 76.6527 21.9V35.35C76.6527 36.7167 76.8861 37.6667 77.3527 38.2C77.8527 38.7 78.6861 38.95 79.8527 38.95V40C76.5194 39.8667 74.3194 39.8 73.2527 39.8C72.2527 39.8 70.0861 39.8667 66.7527 40V38.95C67.7527 38.95 68.4527 38.7 68.8527 38.2C69.2527 37.6667 69.4527 36.7167 69.4527 35.35V19.8C69.4527 18.4333 69.2194 17.4 68.7527 16.7C68.3194 16 67.5194 15.65 66.3527 15.65C64.9861 15.65 63.8194 16.2167 62.8527 17.35C61.8861 18.45 61.4027 19.8167 61.4027 21.45V35.35C61.4027 36.7167 61.6027 37.6667 62.0027 38.2C62.4027 38.7 63.1027 38.95 64.1027 38.95V40C61.0361 39.8667 58.9694 39.8 57.9027 39.8C56.9027 39.8 54.6027 39.8667 51.0027 40V38.95C52.2027 38.95 53.0361 38.7 53.5027 38.2C53.9694 37.6667 54.2027 36.7167 54.2027 35.35V19.6C54.2027 18.0667 53.9694 16.95 53.5027 16.25C53.0361 15.55 52.2027 15.2 51.0027 15.2V14.15C52.0694 14.25 53.1027 14.3 54.1027 14.3C57.0694 14.3 59.5027 14.0667 61.4027 13.6V18.1C62.9027 15 65.6361 13.45 69.6027 13.45ZM94.7156 13.45C95.949 13.45 97.1156 13.5833 98.2156 13.85C99.3156 14.1167 100.232 14.4833 100.966 14.95C101.832 15.4833 102.499 16.1667 102.966 17C103.466 17.8 103.716 18.6833 103.716 19.65C103.716 20.8167 103.349 21.7833 102.616 22.55C101.882 23.2833 100.932 23.65 99.7656 23.65C98.599 23.65 97.6656 23.3167 96.9656 22.65C96.2656 21.9833 95.9156 21.0833 95.9156 19.95C95.9156 18.95 96.2323 18.0833 96.8656 17.35C97.499 16.6167 98.2823 16.1167 99.2156 15.85C98.949 15.4833 98.5323 15.2 97.9656 15C97.4323 14.7667 96.849 14.65 96.2156 14.65C94.2156 14.65 92.649 15.75 91.5156 17.95C90.4156 20.1167 89.8656 22.9667 89.8656 26.5C89.8656 30.0667 90.499 32.6333 91.7656 34.2C93.0323 35.7667 94.6156 36.55 96.5156 36.55C97.649 36.55 98.7823 36.25 99.9156 35.65C101.082 35.05 102.132 34 103.066 32.5L103.916 32.8C103.249 34.9667 102.082 36.8333 100.416 38.4C98.749 39.9333 96.599 40.7 93.9656 40.7C90.5323 40.7 87.7323 39.5667 85.5656 37.3C83.399 35.0333 82.3156 31.6667 82.3156 27.2C82.3156 24.2667 82.849 21.7667 83.9156 19.7C84.9823 17.6333 86.449 16.0833 88.3156 15.05C90.1823 13.9833 92.3156 13.45 94.7156 13.45ZM113.12 40.35C110.987 40.35 109.387 39.8 108.32 38.7C107.287 37.6 106.77 36.15 106.77 34.35C106.77 32.85 107.154 31.6167 107.92 30.65C108.72 29.65 109.67 28.8833 110.77 28.35C111.904 27.8167 113.337 27.25 115.07 26.65C116.904 26.0167 118.237 25.45 119.07 24.95C119.937 24.4167 120.37 23.7 120.37 22.8V18.9C120.37 17.5 120.037 16.4167 119.37 15.65C118.737 14.85 117.737 14.45 116.37 14.45C114.77 14.45 113.554 14.85 112.72 15.65C113.654 15.9833 114.37 16.4833 114.87 17.15C115.404 17.8167 115.67 18.6 115.67 19.5C115.67 20.6333 115.287 21.5333 114.52 22.2C113.754 22.8667 112.82 23.2 111.72 23.2C110.554 23.2 109.654 22.8333 109.02 22.1C108.387 21.3667 108.07 20.45 108.07 19.35C108.07 18.4167 108.287 17.6333 108.72 17C109.187 16.3333 109.887 15.7167 110.82 15.15C111.72 14.6167 112.82 14.2 114.12 13.9C115.454 13.6 116.904 13.45 118.47 13.45C120.104 13.45 121.52 13.6167 122.72 13.95C123.92 14.2833 124.92 14.85 125.72 15.65C126.454 16.3833 126.937 17.2833 127.17 18.35C127.437 19.4167 127.57 20.8667 127.57 22.7V36.3C127.57 37.1 127.637 37.6667 127.77 38C127.937 38.3333 128.237 38.5 128.67 38.5C129.17 38.5 129.77 38.2167 130.47 37.65L130.97 38.5C129.47 39.7333 127.637 40.35 125.47 40.35C123.637 40.35 122.354 39.9833 121.62 39.25C120.887 38.5167 120.504 37.5333 120.47 36.3C118.804 39 116.354 40.35 113.12 40.35ZM116.97 37.15C118.27 37.15 119.404 36.4667 120.37 35.1V24.85C119.97 25.5167 119.12 26.25 117.82 27.05C116.52 27.8833 115.537 28.7167 114.87 29.55C114.204 30.3833 113.87 31.5833 113.87 33.15C113.87 34.5167 114.154 35.5333 114.72 36.2C115.287 36.8333 116.037 37.15 116.97 37.15ZM142.599 35.35C142.599 36.7167 142.833 37.6667 143.299 38.2C143.766 38.7 144.599 38.95 145.799 38.95V40C142.333 39.8667 140.099 39.8 139.099 39.8C137.966 39.8 135.666 39.8667 132.199 40V38.95C133.366 38.95 134.183 38.7 134.649 38.2C135.149 37.6667 135.399 36.7167 135.399 35.35V6.85C135.399 5.31666 135.149 4.2 134.649 3.5C134.183 2.8 133.366 2.45 132.199 2.45V1.4C133.266 1.5 134.299 1.55 135.299 1.55C138.199 1.55 140.633 1.31666 142.599 0.849997V35.35ZM157.246 48.4C158.646 48.2667 159.796 47.85 160.696 47.15C161.63 46.4833 162.33 45.35 162.796 43.75C163.296 42.1833 163.546 40.0333 163.546 37.3V9.9C163.546 8.63333 163.446 7.71667 163.246 7.15C163.08 6.58333 162.73 6.2 162.196 6C161.696 5.8 160.896 5.66666 159.796 5.6V4.6C161.463 4.7 163.98 4.75 167.346 4.75C170.78 4.75 173.413 4.7 175.246 4.6V5.6C174.113 5.66666 173.296 5.8 172.796 6C172.296 6.2 171.946 6.58333 171.746 7.15C171.58 7.71667 171.496 8.63333 171.496 9.9V28.2V31.25C171.496 35.95 171.213 39.2833 170.646 41.25C169.946 43.6833 168.446 45.65 166.146 47.15C163.88 48.65 160.913 49.4 157.246 49.4V48.4ZM201.977 34.55C201.977 36.0833 202.21 37.2 202.677 37.9C203.177 38.6 204.01 38.95 205.177 38.95V40C204.144 39.9 203.11 39.85 202.077 39.85C199.177 39.85 196.744 40.0833 194.777 40.55V36.05C193.244 39.15 190.56 40.7 186.727 40.7C184.227 40.7 182.41 40.05 181.277 38.75C180.744 38.1167 180.344 37.3 180.077 36.3C179.844 35.2667 179.727 33.9167 179.727 32.25V19.6C179.727 18.0667 179.477 16.95 178.977 16.25C178.51 15.55 177.694 15.2 176.527 15.2V14.15C177.56 14.25 178.594 14.3 179.627 14.3C182.527 14.3 184.96 14.0667 186.927 13.6V34.3C186.927 35.7 187.127 36.75 187.527 37.45C187.96 38.15 188.76 38.5 189.927 38.5C191.26 38.5 192.394 37.95 193.327 36.85C194.294 35.7167 194.777 34.3333 194.777 32.7V19.6C194.777 18.0667 194.527 16.95 194.027 16.25C193.56 15.55 192.744 15.2 191.577 15.2V14.15C192.644 14.25 193.677 14.3 194.677 14.3C197.577 14.3 200.01 14.0667 201.977 13.6V34.55ZM213.999 40.35C211.866 40.35 210.266 39.8 209.199 38.7C208.166 37.6 207.649 36.15 207.649 34.35C207.649 32.85 208.033 31.6167 208.799 30.65C209.599 29.65 210.549 28.8833 211.649 28.35C212.783 27.8167 214.216 27.25 215.949 26.65C217.783 26.0167 219.116 25.45 219.949 24.95C220.816 24.4167 221.249 23.7 221.249 22.8V18.9C221.249 17.5 220.916 16.4167 220.249 15.65C219.616 14.85 218.616 14.45 217.249 14.45C215.649 14.45 214.433 14.85 213.599 15.65C214.533 15.9833 215.249 16.4833 215.749 17.15C216.283 17.8167 216.549 18.6 216.549 19.5C216.549 20.6333 216.166 21.5333 215.399 22.2C214.633 22.8667 213.699 23.2 212.599 23.2C211.433 23.2 210.533 22.8333 209.899 22.1C209.266 21.3667 208.949 20.45 208.949 19.35C208.949 18.4167 209.166 17.6333 209.599 17C210.066 16.3333 210.766 15.7167 211.699 15.15C212.599 14.6167 213.699 14.2 214.999 13.9C216.333 13.6 217.783 13.45 219.349 13.45C220.983 13.45 222.399 13.6167 223.599 13.95C224.799 14.2833 225.799 14.85 226.599 15.65C227.333 16.3833 227.816 17.2833 228.049 18.35C228.316 19.4167 228.449 20.8667 228.449 22.7V36.3C228.449 37.1 228.516 37.6667 228.649 38C228.816 38.3333 229.116 38.5 229.549 38.5C230.049 38.5 230.649 38.2167 231.349 37.65L231.849 38.5C230.349 39.7333 228.516 40.35 226.349 40.35C224.516 40.35 223.233 39.9833 222.499 39.25C221.766 38.5167 221.383 37.5333 221.349 36.3C219.683 39 217.233 40.35 213.999 40.35ZM217.849 37.15C219.149 37.15 220.283 36.4667 221.249 35.1V24.85C220.849 25.5167 219.999 26.25 218.699 27.05C217.399 27.8833 216.416 28.7167 215.749 29.55C215.083 30.3833 214.749 31.5833 214.749 33.15C214.749 34.5167 215.033 35.5333 215.599 36.2C216.166 36.8333 216.916 37.15 217.849 37.15ZM251.878 13.45C254.411 13.45 256.245 14.1 257.378 15.4C257.945 16.0333 258.345 16.85 258.578 17.85C258.811 18.85 258.928 20.2 258.928 21.9V35.35C258.928 36.7167 259.161 37.6667 259.628 38.2C260.128 38.7 260.961 38.95 262.128 38.95V40C258.795 39.8667 256.595 39.8 255.528 39.8C254.528 39.8 252.361 39.8667 249.028 40V38.95C250.028 38.95 250.728 38.7 251.128 38.2C251.528 37.6667 251.728 36.7167 251.728 35.35V19.8C251.728 18.4333 251.495 17.4 251.028 16.7C250.595 16 249.795 15.65 248.628 15.65C247.261 15.65 246.095 16.2167 245.128 17.35C244.161 18.45 243.678 19.8167 243.678 21.45V35.35C243.678 36.7167 243.878 37.6667 244.278 38.2C244.678 38.7 245.378 38.95 246.378 38.95V40C243.311 39.8667 241.245 39.8 240.178 39.8C239.178 39.8 236.878 39.8667 233.278 40V38.95C234.478 38.95 235.311 38.7 235.778 38.2C236.245 37.6667 236.478 36.7167 236.478 35.35V19.6C236.478 18.0667 236.245 16.95 235.778 16.25C235.311 15.55 234.478 15.2 233.278 15.2V14.15C234.345 14.25 235.378 14.3 236.378 14.3C239.345 14.3 241.778 14.0667 243.678 13.6V18.1C245.178 15 247.911 13.45 251.878 13.45ZM270.491 1.25C271.891 1.25 272.991 1.6 273.791 2.3C274.624 2.96667 275.041 3.9 275.041 5.1C275.041 6.3 274.624 7.25 273.791 7.95C272.991 8.61666 271.891 8.95 270.491 8.95C269.091 8.95 267.974 8.61666 267.141 7.95C266.341 7.25 265.941 6.3 265.941 5.1C265.941 3.9 266.341 2.96667 267.141 2.3C267.974 1.6 269.091 1.25 270.491 1.25ZM274.391 35.35C274.391 36.7167 274.624 37.6667 275.091 38.2C275.591 38.7 276.424 38.95 277.591 38.95V40C274.258 39.8667 272.041 39.8 270.941 39.8C269.908 39.8 267.591 39.8667 263.991 40V38.95C265.191 38.95 266.024 38.7 266.491 38.2C266.958 37.6667 267.191 36.7167 267.191 35.35V19.6C267.191 18.0667 266.958 16.95 266.491 16.25C266.024 15.55 265.191 15.2 263.991 15.2V14.15C265.058 14.25 266.091 14.3 267.091 14.3C270.058 14.3 272.491 14.0667 274.391 13.6V35.35ZM288.263 39.25H290.863C292.996 39.25 294.796 38.55 296.263 37.15C297.729 35.7167 298.596 33.4333 298.863 30.3H299.913C299.913 35.0333 299.979 38.3333 300.113 40.2C297.413 40.0667 294.213 40 290.513 40C287.246 40 283.779 40.0833 280.113 40.25L292.613 14.9H289.813C285.046 14.9 282.446 17.8833 282.013 23.85H280.963C280.963 19.1167 280.896 15.8167 280.763 13.95C283.463 14.0833 286.663 14.15 290.363 14.15C293.629 14.15 297.096 14.0667 300.763 13.9L288.263 39.25Z" fill="white"/>
</svg>
